<svg width="35" height="33" viewBox="0 0 35 33" fill="none" xmlns="http://www.w3.org/2000/svg">
<path d="M5.85812 23.8306C6.08518 24.0585 6.25917 24.3337 6.36768 24.6366C6.4762 24.9395 6.51658 25.2626 6.48594 25.5828C6.3322 27.065 6.04073 28.5297 5.61531 29.9578C8.66687 29.2512 10.5306 28.4331 11.3772 28.0044C11.8574 27.7612 12.4103 27.7035 12.9303 27.8425C14.421 28.2399 15.9573 28.4399 17.5 28.4375C26.2413 28.4375 32.8125 22.2972 32.8125 15.3125C32.8125 8.33 26.2413 2.1875 17.5 2.1875C8.75875 2.1875 2.1875 8.33 2.1875 15.3125C2.1875 18.5238 3.53719 21.5031 5.85812 23.8306ZM4.77969 32.3728C4.2614 32.4756 3.74143 32.5696 3.22 32.655C2.7825 32.725 2.45 32.27 2.62281 31.8631C2.81704 31.4051 2.99507 30.9403 3.15656 30.4697L3.16313 30.4478C3.70563 28.8728 4.1475 27.0616 4.30938 25.375C1.62531 22.6844 0 19.1625 0 15.3125C0 6.85563 7.83562 0 17.5 0C27.1644 0 35 6.85563 35 15.3125C35 23.7694 27.1644 30.625 17.5 30.625C15.7667 30.6273 14.0407 30.4023 12.3659 29.9556C11.2284 30.5309 8.78062 31.5787 4.77969 32.3728Z" fill="white"/>
</svg>
