<svg width="27" height="29" viewBox="0 0 27 29" fill="none" xmlns="http://www.w3.org/2000/svg">
<path d="M14.1514 2.06243L14.1517 2.06271L23.9951 10.3633L14.1514 2.06243ZM14.1514 2.06243C13.8641 1.82057 13.5006 1.68794 13.125 1.68794C12.7494 1.68794 12.3859 1.82057 12.0986 2.06243L12.0983 2.06268M14.1514 2.06243L12.0983 2.06268M12.0983 2.06268L2.25488 10.3618C2.07737 10.5112 1.93463 10.6976 1.83663 10.9079L2.28985 11.1191L1.83663 10.9079C1.73863 11.1182 1.68774 11.3474 1.6875 11.5794V11.5799M12.0983 2.06268L1.6875 11.5799M1.6875 11.5799V25.876C1.6875 26.3534 2.07469 26.7406 2.55208 26.7406H7.65625C7.88555 26.7406 8.10546 26.6495 8.2676 26.4873C8.42974 26.3252 8.52083 26.1053 8.52083 25.876V17.8552C8.52083 16.7213 9.44012 15.8031 10.5729 15.8031H15.6771C16.8099 15.8031 17.7292 16.7213 17.7292 17.8552V25.876C17.7292 26.3534 18.1164 26.7406 18.5938 26.7406H23.6979C23.9272 26.7406 24.1471 26.6495 24.3093 26.4873C24.4714 26.3252 24.5625 26.1053 24.5625 25.876V11.5814V11.5809M1.6875 11.5799L24.5625 11.5809M24.5625 11.5809C24.5623 11.3489 24.5114 11.1197 24.4134 10.9094M24.5625 11.5809L24.4134 10.9094M24.4134 10.9094C24.3154 10.6992 24.1728 10.5129 23.9955 10.3635L24.4134 10.9094ZM11.3326 1.15456C11.3327 1.15454 11.3327 1.15451 11.3327 1.15448C11.8343 0.73181 12.4691 0.5 13.125 0.5C13.7809 0.5 14.4158 0.731842 14.9174 1.15456L24.7608 9.45514C25.388 9.98461 25.75 10.7623 25.75 11.5814V25.8774C25.75 26.4217 25.5338 26.9436 25.149 27.3285C24.7641 27.7133 24.2422 27.9295 23.6979 27.9295H18.5938C18.0495 27.9295 17.5275 27.7133 17.1427 27.3285C16.7579 26.9436 16.5417 26.4217 16.5417 25.8774V17.8566C16.5417 17.6273 16.4506 17.4074 16.2884 17.2453C16.1263 17.0831 15.9064 16.992 15.6771 16.992H10.5729C10.3436 16.992 10.1237 17.0831 9.96156 17.2453C9.79942 17.4074 9.70833 17.6273 9.70833 17.8566V25.8774C9.70833 26.4217 9.49213 26.9436 9.10729 27.3285C8.72245 27.7133 8.2005 27.9295 7.65625 27.9295H2.55208C2.2826 27.9295 2.01576 27.8765 1.76679 27.7733C1.51782 27.6702 1.2916 27.519 1.10104 27.3285C0.910487 27.1379 0.759332 26.9117 0.656206 26.6627C0.553079 26.4138 0.5 26.1469 0.5 25.8774V11.5814C0.5 10.7623 0.861989 9.98461 1.4892 9.45514L11.3326 1.15456Z" fill="white" stroke="white"/>
</svg>
